<?xml version="1.0" standalone="no"?><!DOCTYPE svg PUBLIC "-//W3C//DTD SVG 1.1//EN" "http://www.w3.org/Graphics/SVG/1.1/DTD/svg11.dtd"><svg t="1660109466366" class="icon" viewBox="0 0 1024 1024" version="1.1" xmlns="http://www.w3.org/2000/svg" p-id="898" xmlns:xlink="http://www.w3.org/1999/xlink" width="200" height="200"><defs><style type="text/css">@font-face { font-family: feedback-iconfont; src: url("//at.alicdn.com/t/font_1031158_u69w8yhxdu.woff2?t=1630033759944") format("woff2"), url("//at.alicdn.com/t/font_1031158_u69w8yhxdu.woff?t=1630033759944") format("woff"), url("//at.alicdn.com/t/font_1031158_u69w8yhxdu.ttf?t=1630033759944") format("truetype"); }
</style></defs><path d="M921.6 102.4H102.4C46.08 102.4 0 148.48 0 204.8v409.6c0 56.32 46.08 102.4 102.4 102.4h204.8v204.8l307.2-204.8h307.2c56.32 0 102.4-46.08 102.4-102.4V204.8c0-56.32-46.08-102.4-102.4-102.4zM230.4 486.4c-42.496 0-76.8-34.304-76.8-76.8s34.304-76.8 76.8-76.8 76.8 34.304 76.8 76.8-34.304 76.8-76.8 76.8z m281.6 0c-42.496 0-76.8-34.304-76.8-76.8s34.304-76.8 76.8-76.8 76.8 34.304 76.8 76.8-34.304 76.8-76.8 76.8z m281.6 0c-42.496 0-76.8-34.304-76.8-76.8s34.304-76.8 76.8-76.8 76.8 34.304 76.8 76.8-34.304 76.8-76.8 76.8z" fill="#ffffff" p-id="899"></path></svg>